<svg xmlns="http://www.w3.org/2000/svg" xmlns:xlink="http://www.w3.org/1999/xlink" width="2000" zoomAndPan="magnify" viewBox="0 0 1500 1499.999933" height="2000" preserveAspectRatio="xMidYMid meet" version="1.0"><defs><clipPath id="b3a173f6f0"><path d="M 620 78.785156 L 886 78.785156 L 886 425 L 620 425 Z M 620 78.785156 " clip-rule="nonzero"/></clipPath><clipPath id="9a9c2df9aa"><path d="M 685 943 L 805 943 L 805 1421.285156 L 685 1421.285156 Z M 685 943 " clip-rule="nonzero"/></clipPath></defs><g clip-path="url(#b3a173f6f0)"><path fill="#445a6f" d="M 885.421875 424.015625 L 620.050781 422.382812 L 620.25 85.617188 C 620.246094 81.839844 623.304688 78.785156 627.070312 78.785156 L 878.898438 78.785156 C 881.851562 78.785156 884.203125 81.121094 884.203125 83.980469 Z M 885.421875 424.015625 " fill-opacity="1" fill-rule="nonzero"/></g><path fill="#a7c1d3" d="M 885.457031 424.042969 L 888.109375 459.109375 C 888.625 466.371094 892.757812 472.882812 899.113281 476.433594 L 1181.003906 635.136719 C 1181.207031 635.269531 1181.378906 635.480469 1181.515625 635.746094 C 1181.789062 636.15625 1181.925781 637.070312 1181.925781 638.5 C 1181.871094 639.742188 1182.546875 640.894531 1183.65625 641.453125 L 1230.125 665.914062 L 275.207031 666.933594 L 614.0625 474.292969 C 616.792969 472.699219 618.527344 469.855469 618.648438 466.746094 L 620.078125 422.410156 Z M 885.457031 424.042969 " fill-opacity="1" fill-rule="nonzero"/><path fill="#445a6f" d="M 275.207031 666.933594 L 1230.121094 665.914062 C 1260.289062 660.410156 1281.550781 667.746094 1293.917969 687.929688 C 1310.730469 715.144531 1303.394531 767.230469 1302.683594 802.390625 C 1260.832031 804.5 1219.046875 804.703125 1177.332031 803.003906 C 1114.894531 800.417969 1073.246094 799.296875 1052.390625 799.640625 C 825.945312 803.613281 713.535156 806.574219 538.960938 800.863281 C 443.4375 797.667969 348.386719 799.640625 253.808594 806.777344 C 241.039062 807.730469 221.875 805.488281 196.332031 800.050781 L 195.003906 714.941406 C 195.003906 712.578125 195.34375 710.242188 196.023438 708.007812 C 206.488281 672.203125 232.882812 658.511719 275.207031 666.933594 Z M 275.207031 666.933594 " fill-opacity="1" fill-rule="nonzero"/><path fill="#223342" d="M 1302.683594 802.390625 C 1310.019531 843.164062 1300.035156 879.242188 1251.933594 879.242188 C 1248.738281 879.242188 1245.625 877.929688 1243.265625 875.570312 L 1223.90625 856.207031 C 1216.851562 849.171875 1205.429688 849.183594 1198.394531 856.238281 C 1198.375 856.265625 1198.347656 856.285156 1198.328125 856.308594 C 1162.722656 892.59375 1126.414062 892.015625 1089.386719 854.574219 C 1083.976562 849.078125 1075.105469 849.042969 1069.574219 854.5 C 1069.414062 854.65625 1069.257812 854.816406 1069.105469 854.984375 C 1034.863281 892.496094 997.902344 892.425781 958.222656 854.785156 C 952.496094 849.378906 943.570312 849.285156 937.738281 854.582031 C 922.148438 868.851562 916.4375 876.597656 897.484375 881.492188 C 869.15625 888.761719 846.597656 880.4375 829.8125 856.523438 C 824.992188 849.65625 815.523438 848.003906 808.65625 852.824219 C 807.953125 853.320312 807.289062 853.878906 806.675781 854.480469 L 789.246094 871.914062 C 787.644531 873.585938 785.648438 874.847656 783.433594 875.585938 C 745.046875 889.105469 715.328125 882.3125 694.257812 855.199219 C 689.609375 849.191406 680.964844 848.089844 674.957031 852.742188 C 674.507812 853.089844 674.078125 853.46875 673.675781 853.871094 L 652.984375 874.664062 C 650.445312 877.140625 647.359375 878.929688 644.015625 879.859375 C 611.472656 888.96875 585.042969 881.050781 564.726562 856.113281 C 559.222656 849.273438 549.183594 848.210938 542.296875 853.757812 C 542.128906 853.890625 541.960938 854.03125 541.792969 854.179688 L 523.550781 870.183594 C 521.398438 872.066406 518.949219 873.550781 516.316406 874.566406 C 480.644531 888.769531 452.960938 882.546875 433.261719 855.910156 C 428.160156 848.96875 418.402344 847.480469 411.464844 852.589844 C 410.84375 853.042969 410.261719 853.542969 409.71875 854.078125 L 392.085938 871.8125 C 390.746094 873.15625 389.105469 874.203125 387.292969 874.875 C 351.554688 887.921875 324.113281 882.34375 304.953125 858.160156 C 298.207031 849.574219 285.777344 848.085938 277.191406 854.832031 C 276.5625 855.328125 275.964844 855.855469 275.402344 856.429688 L 256.546875 875.382812 C 254.695312 877.167969 252.328125 878.285156 249.824219 878.546875 C 201.109375 883.847656 192.648438 843.378906 196.320312 800.0625 C 221.863281 805.5 241.023438 807.742188 253.796875 806.789062 C 348.367188 799.652344 443.421875 797.679688 538.949219 800.875 C 713.519531 806.582031 825.933594 803.628906 1052.378906 799.652344 C 1073.238281 799.3125 1114.882812 800.433594 1177.320312 803.015625 C 1219.046875 804.707031 1260.832031 804.5 1302.683594 802.390625 Z M 1302.683594 802.390625 " fill-opacity="1" fill-rule="nonzero"/><path fill="#223342" d="M 511.234375 1342.808594 L 503.183594 1334.753906 C 498.167969 1329.738281 498.136719 1321.636719 503.109375 1316.65625 C 503.261719 1316.503906 503.425781 1316.347656 503.589844 1316.199219 C 538.855469 1284.398438 552.914062 1242.945312 545.78125 1191.851562 C 544.285156 1181.183594 534.332031 1154.71875 515.921875 1112.449219 C 494.925781 1063.929688 489.113281 989.523438 527.335938 946.507812 C 529.652344 943.898438 533.269531 942.863281 536.613281 943.859375 C 548.027344 947.054688 554.921875 953.4375 557.296875 963.023438 C 558.074219 966.359375 557.527344 969.835938 555.765625 972.707031 C 516.121094 1037.230469 559.949219 1107.863281 578.390625 1163.410156 C 599.929688 1228.097656 584.640625 1287.828125 532.53125 1342.601562 C 526.847656 1348.542969 517.429688 1348.742188 511.496094 1343.0625 C 511.410156 1342.984375 511.324219 1342.894531 511.234375 1342.808594 Z M 511.234375 1342.808594 " fill-opacity="1" fill-rule="nonzero"/><g clip-path="url(#9a9c2df9aa)"><path fill="#223342" d="M 716.179688 1417.726562 C 712.246094 1422.136719 705.445312 1422.492188 700.996094 1418.519531 C 700.855469 1418.390625 700.722656 1418.265625 700.589844 1418.128906 L 688.660156 1406.203125 C 684.105469 1401.664062 683.929688 1394.347656 688.253906 1389.589844 C 742.265625 1330.570312 780.582031 1251.988281 752.5625 1170.136719 C 732.488281 1111.429688 697.125 1056.6875 719.75 981.46875 C 724.300781 966.246094 730.621094 954.832031 738.703125 947.222656 C 741.050781 944.9375 744.261719 943.722656 747.570312 943.859375 C 762.515625 944.671875 771.546875 950.347656 774.675781 960.882812 C 775.714844 964.324219 775.238281 968.0625 773.355469 971.179688 C 736.160156 1032.636719 758.574219 1074.226562 786.703125 1143.535156 C 830.832031 1252.097656 788.027344 1337.613281 716.179688 1417.726562 Z M 716.179688 1417.726562 " fill-opacity="1" fill-rule="nonzero"/></g><path fill="#223342" d="M 957.613281 983.523438 C 923.570312 1039.785156 950.378906 1103.285156 976.261719 1161.082031 C 1006.734375 1229.375 1001.949219 1298.480469 957.710938 1361.058594 C 951.378906 1370.0625 939 1372.332031 929.894531 1366.15625 L 928.160156 1365.035156 C 919.921875 1359.4375 917.804688 1348.179688 923.429688 1339.894531 C 923.699219 1339.5 923.988281 1339.109375 924.289062 1338.742188 C 992.164062 1255.054688 934.175781 1188.804688 910.429688 1104.105469 C 896.160156 1053.078125 899.832031 1005.304688 921.4375 960.792969 C 925.898438 951.511719 937.074219 947.625 946.410156 952.113281 C 947.109375 952.449219 947.792969 952.832031 948.445312 953.253906 L 951.09375 954.988281 C 960.625 961.15625 963.519531 973.808594 957.613281 983.523438 Z M 957.613281 983.523438 " fill-opacity="1" fill-rule="nonzero"/><path fill="#223342" d="M 1163.675781 1184.011719 C 1169.972656 1193.699219 1168.609375 1206.484375 1160.414062 1214.695312 L 1157.5625 1217.648438 C 1151.777344 1223.398438 1142.414062 1223.375 1136.660156 1217.582031 C 1135.800781 1216.714844 1135.050781 1215.742188 1134.425781 1214.6875 C 1085.105469 1130.601562 1058.199219 1052.21875 1120.566406 965.171875 C 1125.109375 958.800781 1133.957031 957.324219 1140.328125 961.867188 C 1140.984375 962.335938 1141.601562 962.859375 1142.171875 963.4375 L 1150.734375 971.894531 C 1156.574219 977.796875 1156.804688 987.207031 1151.246094 993.300781 C 1102.734375 1046.714844 1126.480469 1126.828125 1163.675781 1184.011719 Z M 1163.675781 1184.011719 " fill-opacity="1" fill-rule="nonzero"/></svg>