<svg xmlns="http://www.w3.org/2000/svg" viewBox="0 0 1200 900" role="img" aria-label="Non toxic house cleaning in San Lorenzo Valley"><defs><linearGradient id="g" x1="0" x2="1"><stop offset="0" stop-color="#dff8f2"/><stop offset="1" stop-color="#e7f0ff"/></linearGradient></defs><rect width="1200" height="900" fill="url(#g)"/><circle cx="980" cy="170" r="90" fill="#b9f2e8"/><path d="M210 610h780v160H210z" fill="#c6d7ff"/><path d="M260 610l330-250 350 250" fill="#9eb8ff"/><rect x="515" y="660" width="140" height="110" rx="8" fill="#ffffff"/><rect x="330" y="650" width="120" height="90" rx="8" fill="#ffffff"/><rect x="740" y="650" width="120" height="90" rx="8" fill="#ffffff"/><g fill="#5bc0be"><path d="M605 335l18 40 44 4-34 28 10 43-38-22-38 22 10-43-34-28 44-4z"/><path d="M470 430l10 23 25 2-19 16 6 24-22-13-22 13 6-24-19-16 25-2z"/><path d="M760 440l10 23 25 2-19 16 6 24-22-13-22 13 6-24-19-16 25-2z"/></g></svg>